<?xml version="1.0" encoding="utf-8"?>
<!-- Generator: Adobe Illustrator 19.0.0, SVG Export Plug-In . SVG Version: 6.00 Build 0)  -->
<svg version="1.1" id="Layer_1" xmlns="http://www.w3.org/2000/svg" xmlns:xlink="http://www.w3.org/1999/xlink" x="0px" y="0px"
	 viewBox="0 0 16.1 20" style="enable-background:new 0 0 16.1 20;" xml:space="preserve">
<style type="text/css">
	.st0{fill:#FFFFFF;}
</style>
<g id="XMLID_2_">
	<path id="XMLID_13_" class="st0" d="M8.2,12.1c3.3,0,4.8-2.7,4.8-6.1C13,2.7,11.5,0,8.2,0S3.4,2.7,3.4,6.1
		C3.4,9.4,4.8,12.1,8.2,12.1z M12,6.1c0,1.9-0.5,4.9-3.6,5c0,0,0-0.1,0-0.1C7.5,9.1,8,7.7,8.7,6.3c0.6-1.4,1.3-3.1,0.5-5.1
		C11.6,1.7,12,4.4,12,6.1z M8,1C8,1.1,8,1.1,8,1c0.9,2,0.3,3.4-0.3,4.8C7.1,7.3,6.5,8.9,7.2,11c-2.4-0.6-2.8-3.3-2.8-4.9
		C4.4,4.2,4.9,1.1,8,1z"/>
	<path id="XMLID_15_" class="st0" d="M13.5,17.6c-1.1-0.3-1.7-0.5-2.8-0.9c-0.5-0.2-1-0.4-1.5-0.6c1.1-0.5,2.2-1,3.3-1.3
		c0.8-0.3,1.7-0.3,2.5-0.6c0.4-0.2,0.8-0.3,0.9-0.7c0.2-0.4-0.2-0.3-0.3-0.6c-0.2-0.4-0.1-1-1.2-0.5c-0.8,0.4-1.5,1.1-2.3,1.5
		C10.8,14.4,9.4,15,8,15.6c-1.4-0.6-2.8-1.2-4.1-1.7c-0.9-0.4-1.5-1.1-2.3-1.5c-1.2-0.5-1,0.1-1.2,0.5c-0.1,0.3-0.5,0.2-0.3,0.6
		C0.2,13.8,0.6,14,1,14.1c0.8,0.3,1.7,0.4,2.5,0.6c1.1,0.4,2.2,0.8,3.3,1.3c-0.5,0.2-1,0.4-1.5,0.6c-1,0.4-1.7,0.6-2.8,0.9
		c-0.8,0.2-2.4,0.5-2.6,1.2c-0.1,0.3,0.2,0.4,0.3,0.6c0.1,0.2-0.1,0.5,0.4,0.6c0.9,0.1,2.1-1.1,2.9-1.4c0.9-0.4,1.9-0.8,2.8-1.2
		c0.5-0.2,1-0.4,1.6-0.7c0.5,0.2,1.1,0.5,1.6,0.7c0.9,0.4,1.9,0.8,2.8,1.2c0.8,0.4,2,1.6,2.9,1.4c0.5-0.1,0.3-0.3,0.4-0.6
		c0.1-0.2,0.4-0.3,0.3-0.6C15.9,18.1,14.3,17.8,13.5,17.6z"/>
</g>
</svg>
