<?xml version="1.0" encoding="utf-8"?>
<!-- Generator: Adobe Illustrator 19.0.0, SVG Export Plug-In . SVG Version: 6.00 Build 0)  -->
<svg version="1.1" id="Layer_1" xmlns="http://www.w3.org/2000/svg" xmlns:xlink="http://www.w3.org/1999/xlink" x="0px" y="0px"
	 viewBox="0 0 11.8 20" style="enable-background:new 0 0 11.8 20;" xml:space="preserve">
<style type="text/css">
	.st0{fill:#FFFFFF;}
</style>
<g id="XMLID_1_">
	<path id="XMLID_11_" class="st0" d="M5.2,2.3L3.9,3.5c-0.2,0.2-0.2,0.5,0,0.7l1.6,1.6C5.7,6,5.8,6,5.9,6C6,6,6.2,6,6.3,5.9l1.6-1.6
		c0.2-0.2,0.2-0.5,0-0.7L6.6,2.3l1.2-1.2C8,0.9,8,0.5,7.8,0.3c-0.2-0.2-0.5-0.2-0.7,0L5.9,1.6L4.5,0.1C4.3,0,4,0,3.8,0.1
		c-0.2,0.2-0.2,0.5,0,0.7L5.2,2.3z M5.9,4.8L5,3.9L5.9,3l0.9,0.9L5.9,4.8z"/>
	<path id="XMLID_17_" class="st0" d="M9.6,9.3c0.2,0.2,0.5,0.2,0.7,0L11.6,8c0.1-0.1,0.1-0.2,0.1-0.4c0-0.1-0.1-0.3-0.1-0.4L10,5.7
		c-0.2-0.2-0.5-0.2-0.7,0L6,9L2.5,5.6C2.4,5.5,2.3,5.4,2.1,5.4C2,5.4,1.9,5.5,1.8,5.6L0.1,7.2C0,7.4,0,7.7,0.1,7.9l1.3,1.3
		c0.2,0.2,0.5,0.2,0.7,0c0.2-0.2,0.2-0.5,0-0.7L1.2,7.5l0.9-0.9l3.1,3.1l-4.5,4.5c-0.1,0.1-0.1,0.2-0.1,0.4c0,0.1,0.1,0.3,0.1,0.4
		l4.9,4.9C5.7,20,5.8,20,6,20s0.3,0,0.4-0.1l4.9-4.9c0.1-0.1,0.1-0.2,0.1-0.4c0-0.1-0.1-0.3-0.1-0.4L6.7,9.7l3-3l0.9,0.9L9.6,8.6
		C9.4,8.8,9.4,9.1,9.6,9.3z M6,18.8l-4.2-4.2L6,10.5l4.2,4.2L6,18.8z"/>
</g>
</svg>
